/* XPM */
static char * brot2_xpm[] = {
"32 32 785 2",
"  	c None",
". 	c #FF0000",
"+ 	c #F20A0F",
"@ 	c #B75452",
"# 	c #51AB3A",
"$ 	c #0FF02A",
"% 	c #A74987",
"& 	c #CD2965",
"* 	c #F20D27",
"= 	c #985772",
"- 	c #9B7C4E",
"; 	c #DB2143",
"> 	c #FF0013",
", 	c #FD0115",
"' 	c #AB5966",
") 	c #DD2247",
"! 	c #D12A2C",
"~ 	c #B44269",
"{ 	c #C4258C",
"] 	c #A8497B",
"^ 	c #B700FF",
"/ 	c #C200F6",
"( 	c #9F744A",
"_ 	c #8B6382",
": 	c #C8394D",
"< 	c #FF0018",
"[ 	c #FE0017",
"} 	c #FF0014",
"| 	c #ED142E",
"1 	c #F90137",
"2 	c #D82129",
"3 	c #659554",
"4 	c #944D9D",
"5 	c #BB3F64",
"6 	c #B613DB",
"7 	c #CB1B97",
"8 	c #B5466F",
"9 	c #A7646C",
"0 	c #BB4471",
"a 	c #F30E1F",
"b 	c #F10E21",
"c 	c #B05A50",
"d 	c #B56C40",
"e 	c #DF201E",
"f 	c #16E91F",
"g 	c #59A34B",
"h 	c #E91537",
"i 	c #A35C63",
"j 	c #F80621",
"k 	c #E9132E",
"l 	c #B35A4D",
"m 	c #95963D",
"n 	c #D82552",
"o 	c #CB364F",
"p 	c #C0487F",
"q 	c #6B8270",
"r 	c #8FAA25",
"s 	c #A74D5F",
"t 	c #BB387E",
"u 	c #B511D0",
"v 	c #B5379C",
"w 	c #A45B64",
"x 	c #F50923",
"y 	c #CB3749",
"z 	c #7E9F53",
"A 	c #9C477D",
"B 	c #FB032B",
"C 	c #FA062A",
"D 	c #995681",
"E 	c #8F7474",
"F 	c #799367",
"G 	c #FE0000",
"H 	c #7D7F38",
"I 	c #7A7B5B",
"J 	c #CA2C57",
"K 	c #ED0E2F",
"L 	c #BD5648",
"M 	c #E0203A",
"N 	c #EA1149",
"O 	c #9F6185",
"P 	c #B36447",
"Q 	c #FF0022",
"R 	c #F40F31",
"S 	c #C22EA9",
"T 	c #9749A6",
"U 	c #A65091",
"V 	c #F90000",
"W 	c #E30000",
"X 	c #D90000",
"Y 	c #DE0000",
"Z 	c #F10000",
"` 	c #FF0100",
" .	c #FC0303",
"..	c #8F6171",
"+.	c #B80BD5",
"@.	c #B4456D",
"#.	c #DF1F38",
"$.	c #A4567C",
"%.	c #CE2F5B",
"&.	c #BA4069",
"*.	c #9F8D32",
"=.	c #C139A0",
"-.	c #AB449E",
";.	c #827282",
">.	c #C87C1A",
",.	c #A79E26",
"'.	c #956873",
").	c #970000",
"!.	c #1F0000",
"~.	c #0C0000",
"{.	c #270303",
"].	c #1F0001",
"^.	c #110000",
"/.	c #590000",
"(.	c #FB0000",
"_.	c #E6141D",
":.	c #89617C",
"<.	c #AD427E",
"[.	c #DA2142",
"}.	c #C43F62",
"|.	c #9C4F87",
"1.	c #D92AC0",
"2.	c #C031B7",
"3.	c #95853B",
"4.	c #FF00FB",
"5.	c #D31ADC",
"6.	c #244ABD",
"7.	c #70A057",
"8.	c #B66B4E",
"9.	c #DA2640",
"0.	c #F40000",
"a.	c #3D0000",
"b.	c #1F0202",
"c.	c #674639",
"d.	c #A64878",
"e.	c #B63387",
"f.	c #806F72",
"g.	c #855960",
"h.	c #580C16",
"i.	c #140000",
"j.	c #D30000",
"k.	c #FE0200",
"l.	c #C13B20",
"m.	c #836E63",
"n.	c #DC243F",
"o.	c #95435E",
"p.	c #743E68",
"q.	c #62295A",
"r.	c #212383",
"s.	c #5F8748",
"t.	c #3C43AA",
"u.	c #204BBC",
"v.	c #A7952A",
"w.	c #C4801F",
"x.	c #B535B8",
"y.	c #FC00F4",
"z.	c #C62CB7",
"A.	c #390000",
"B.	c #531B10",
"C.	c #88666C",
"D.	c #C41AA8",
"E.	c #8C696D",
"F.	c #3ABE47",
"G.	c #24D43D",
"H.	c #2ACD39",
"I.	c #589D4F",
"J.	c #912E5C",
"K.	c #E20100",
"L.	c #97603C",
"M.	c #BB1D72",
"N.	c #290D1A",
"O.	c #0B080E",
"P.	c #2C3938",
"Q.	c #2B6149",
"R.	c #17685C",
"S.	c #282C11",
"T.	c #050E0F",
"U.	c #62463F",
"V.	c #889A4B",
"W.	c #2E2BCD",
"X.	c #B52EC7",
"Y.	c #FF00FC",
"Z.	c #B05798",
"`.	c #8B0000",
" +	c #230404",
".+	c #AF446A",
"++	c #B92B99",
"@+	c #5B9F57",
"#+	c #00FF27",
"$+	c #00FF20",
"%+	c #00FF17",
"&+	c #00FF0E",
"*+	c #00FF03",
"=+	c #19E613",
"-+	c #793D43",
";+	c #470100",
">+	c #FB0801",
",+	c #8C375A",
"'+	c #070203",
")+	c #3E3445",
"!+	c #59AB6E",
"~+	c #6DC832",
"{+	c #A0A621",
"]+	c #B3951D",
"^+	c #5CC63A",
"/+	c #59A249",
"(+	c #171A09",
"_+	c #23466A",
":+	c #0911EE",
"<+	c #4F8983",
"[+	c #94884D",
"}+	c #322FCA",
"|+	c #F30000",
"1+	c #150000",
"2+	c #8C3D31",
"3+	c #BC22B0",
"4+	c #58A55B",
"5+	c #00FF31",
"6+	c #00FE28",
"7+	c #00FE1F",
"8+	c #00FF0D",
"9+	c #00FF00",
"0+	c #01FF00",
"a+	c #27E512",
"b+	c #220604",
"c+	c #AF0D05",
"d+	c #0D0306",
"e+	c #555565",
"f+	c #97B229",
"g+	c #CB8E1B",
"h+	c #D37E1D",
"i+	c #DC8418",
"j+	c #D7AB14",
"k+	c #B8881D",
"l+	c #54CC0D",
"m+	c #4FC944",
"n+	c #0E290F",
"o+	c #81461E",
"p+	c #88AD48",
"q+	c #CA8515",
"r+	c #97913B",
"s+	c #1D0101",
"t+	c #9E5384",
"u+	c #CB2385",
"v+	c #02FD3E",
"w+	c #00FF30",
"x+	c #00FE2A",
"y+	c #00FF25",
"z+	c #1AE231",
"A+	c #886571",
"B+	c #AF26A9",
"C+	c #815784",
"D+	c #35DB1E",
"E+	c #544716",
"F+	c #070000",
"G+	c #4C2D3F",
"H+	c #A99B21",
"I+	c #E3481D",
"J+	c #E1351F",
"K+	c #DE3620",
"L+	c #D94325",
"M+	c #D45125",
"N+	c #D79B18",
"O+	c #D38F16",
"P+	c #B0A122",
"Q+	c #A08337",
"R+	c #07160E",
"S+	c #2E3CB5",
"T+	c #101DED",
"U+	c #DB15E3",
"V+	c #CB0000",
"W+	c #4C0204",
"X+	c #9B5B78",
"Y+	c #8E657D",
"Z+	c #00FF3A",
"`+	c #00FE33",
" @	c #06F837",
".@	c #BF2795",
"+@	c #BB00FF",
"@@	c #B30BDB",
"#@	c #C60994",
"$@	c #8E1CC0",
"%@	c #579526",
"&@	c #040000",
"*@	c #AB5C2E",
"=@	c #CB7E20",
"-@	c #A4A430",
";@	c #C09A2A",
">@	c #D0672B",
",@	c #D64326",
"'@	c #D63A29",
")@	c #EA5214",
"!@	c #DF9D11",
"~@	c #ADB014",
"{@	c #8FB721",
"]@	c #216E48",
"^@	c #4E6858",
"/@	c #1C53CD",
"(@	c #8E5AA4",
"_@	c #CA0000",
":@	c #460B0C",
"<@	c #A74A8C",
"[@	c #659373",
"}@	c #00FF3F",
"|@	c #00FF39",
"1@	c #00FF38",
"2@	c #609B5A",
"3@	c #D000E9",
"4@	c #C50DD6",
"5@	c #F60C15",
"6@	c #E60F45",
"7@	c #D80E52",
"8@	c #6E6A47",
"9@	c #190806",
"0@	c #978054",
"a@	c #605DAC",
"b@	c #4F64C4",
"c@	c #42AB7E",
"d@	c #A6B734",
"e@	c #C87032",
"f@	c #D1442B",
"g@	c #CC4730",
"h@	c #CD662D",
"i@	c #CF9F18",
"j@	c #90A514",
"k@	c #82713C",
"l@	c #61381D",
"m@	c #7BA95A",
"n@	c #C18119",
"o@	c #D60000",
"p@	c #2B0000",
"q@	c #A94D7D",
"r@	c #857370",
"s@	c #00FF44",
"t@	c #00FE40",
"u@	c #00FF41",
"v@	c #6A9259",
"w@	c #D700FF",
"x@	c #DA1288",
"y@	c #F20939",
"z@	c #6C7099",
"A@	c #9C765A",
"B@	c #673D42",
"C@	c #21120A",
"D@	c #B52683",
"E@	c #CE1280",
"F@	c #E90772",
"G@	c #663AD2",
"H@	c #54B466",
"I@	c #CC9B2B",
"J@	c #D34929",
"K@	c #E42D1B",
"L@	c #E66616",
"M@	c #C08F2E",
"N@	c #9CAB11",
"O@	c #43B46E",
"P@	c #163B47",
"Q@	c #0C16EB",
"R@	c #AB4994",
"S@	c #EF0000",
"T@	c #89554F",
"U@	c #CB1FA9",
"V@	c #07F856",
"W@	c #00FF49",
"X@	c #19E462",
"Y@	c #DF0BBD",
"Z@	c #DF09E2",
"`@	c #F30C25",
" #	c #C51E84",
".#	c #B6268E",
"+#	c #2D2613",
"@#	c #21130F",
"##	c #926966",
"$#	c #787480",
"%#	c #F40D45",
"&#	c #8B1BD4",
"*#	c #47B669",
"=#	c #BE9B39",
"-#	c #DF4321",
";#	c #D13B2C",
">#	c #DC5E24",
",#	c #CECC0B",
"'#	c #74C40B",
")#	c #817440",
"!#	c #4F4512",
"~#	c #2055C1",
"{#	c #CF1ED9",
"]#	c #6C0000",
"^#	c #3A0304",
"/#	c #807972",
"(#	c #9A5986",
"_#	c #00FF53",
":#	c #00FE52",
"<#	c #00FF58",
"[#	c #3CBF75",
"}#	c #DC18C3",
"|#	c #FF00DE",
"1#	c #FB04AD",
"2#	c #657796",
"3#	c #15250F",
"4#	c #110A08",
"5#	c #B71F79",
"6#	c #ED0E50",
"7#	c #DB0095",
"8#	c #4C56D1",
"9#	c #6CC050",
"0#	c #CC8A2F",
"a#	c #D83B28",
"b#	c #DD411F",
"c#	c #DB671E",
"d#	c #C6CE11",
"e#	c #BC8E0C",
"f#	c #0CA788",
"g#	c #2A3673",
"h#	c #86974B",
"i#	c #AD507D",
"j#	c #860F15",
"k#	c #AC4988",
"l#	c #619A7C",
"m#	c #0BF262",
"n#	c #00FF60",
"o#	c #00FF69",
"p#	c #00FF7A",
"q#	c #15E989",
"r#	c #0FDC9A",
"s#	c #170C09",
"t#	c #3BA686",
"u#	c #2B1712",
"v#	c #5E7152",
"w#	c #655DC0",
"x#	c #487CB8",
"y#	c #59C25F",
"z#	c #BCA52D",
"A#	c #D45228",
"B#	c #D63A28",
"C#	c #DF511F",
"D#	c #D8A517",
"E#	c #93991A",
"F#	c #4CCF6C",
"G#	c #2D2D09",
"H#	c #1628BB",
"I#	c #6D3CC3",
"J#	c #8F6B79",
"K#	c #E50100",
"L#	c #1B0000",
"M#	c #3E0604",
"N#	c #B8314F",
"O#	c #857392",
"P#	c #78808D",
"Q#	c #57A689",
"R#	c #4BB295",
"S#	c #5A4642",
"T#	c #090100",
"U#	c #8C2B24",
"V#	c #1FBCDC",
"W#	c #8C3F50",
"X#	c #1E0E04",
"Y#	c #CB6023",
"Z#	c #C08229",
"`#	c #D26E25",
" $	c #DB4121",
".$	c #DD3721",
"+$	c #DE541D",
"@$	c #DB7E1E",
"#$	c #C1A519",
"$$	c #5FCF1E",
"%$	c #377B36",
"&$	c #0D1435",
"*$	c #909836",
"=$	c #D02ECE",
"-$	c #DA15E6",
";$	c #FF0200",
">$	c #610000",
",$	c #090000",
"'$	c #300100",
")$	c #4A0C09",
"!$	c #420908",
"~$	c #140100",
"{$	c #DF0F00",
"]$	c #5971B2",
"^$	c #0D88F0",
"/$	c #BC4477",
"($	c #2C3620",
"_$	c #2B1904",
":$	c #D54313",
"<$	c #E2431C",
"[$	c #E34D1A",
"}$	c #E16A1D",
"|$	c #D38C1C",
"1$	c #A7CB0D",
"2$	c #6EBD2C",
"3$	c #3D8B5D",
"4$	c #121009",
"5$	c #1E42DA",
"6$	c #B44D85",
"7$	c #67658A",
"8$	c #BF3A6F",
"9$	c #EA0200",
"0$	c #D30300",
"a$	c #C90300",
"b$	c #CE0400",
"c$	c #E10700",
"d$	c #FF0B00",
"e$	c #B65252",
"f$	c #0055FF",
"g$	c #005CFF",
"h$	c #B05A66",
"i$	c #BE317D",
"j$	c #354947",
"k$	c #080D03",
"l$	c #555C0A",
"m$	c #99AC08",
"n$	c #A1AC11",
"o$	c #84BA26",
"p$	c #3AA650",
"q$	c #0C2821",
"r$	c #1B1B16",
"s$	c #3846AF",
"t$	c #C3704B",
"u$	c #F000FF",
"v$	c #A47E42",
"w$	c #D4364E",
"x$	c #FF0300",
"y$	c #FF0400",
"z$	c #FF0500",
"A$	c #FF0700",
"B$	c #FF0600",
"C$	c #DB2E29",
"D$	c #3A4CCA",
"E$	c #0027FF",
"F$	c #0034FF",
"G$	c #975B78",
"H$	c #C93869",
"I$	c #C03879",
"J$	c #594888",
"K$	c #172525",
"L$	c #060D09",
"M$	c #010403",
"N$	c #050806",
"O$	c #0B1116",
"P$	c #22257C",
"Q$	c #87657E",
"R$	c #F611E8",
"S$	c #757A7F",
"T$	c #B93966",
"U$	c #E5143F",
"V$	c #A052A5",
"W$	c #FE0500",
"X$	c #CA3A35",
"Y$	c #8C5681",
"Z$	c #041CFA",
"`$	c #000DFE",
" %	c #0015FF",
".%	c #5F4DA0",
"+%	c #9E608B",
"@%	c #DC235E",
"#%	c #D22E5A",
"$%	c #AE4388",
"%%	c #9E41B5",
"&%	c #853DA6",
"*%	c #844F93",
"=%	c #C225E3",
"-%	c #B23FC4",
";%	c #B8479F",
">%	c #CC3175",
",%	c #CD3958",
"'%	c #D12D65",
")%	c #EF0E3D",
"!%	c #938D47",
"~%	c #FE0300",
"{%	c #FE0601",
"]%	c #D62D29",
"^%	c #99636C",
"/%	c #271ED9",
"(%	c #0100FF",
"_%	c #0600FF",
":%	c #0001FF",
"<%	c #3125D1",
"[%	c #857D5C",
"}%	c #AA4EA6",
"|%	c #D92456",
"1%	c #D32E48",
"2%	c #D3284F",
"3%	c #C63B5D",
"4%	c #B15C5B",
"5%	c #D52965",
"6%	c #D42B4D",
"7%	c #CA3854",
"8%	c #E91843",
"9%	c #D02D4B",
"0%	c #A15D76",
"a%	c #F10D22",
"b%	c #C52D55",
"c%	c #FE0400",
"d%	c #FC0707",
"e%	c #BF463C",
"f%	c #976772",
"g%	c #432DBF",
"h%	c #1500FE",
"i%	c #1600FF",
"j%	c #1000FE",
"k%	c #0C0CF4",
"l%	c #B03A5B",
"m%	c #7D7F7E",
"n%	c #C036A0",
"o%	c #D918A9",
"p%	c #D32E37",
"q%	c #E61733",
"r%	c #E11B3D",
"s%	c #C54542",
"t%	c #E11C3B",
"u%	c #BE4D47",
"v%	c #E01F31",
"w%	c #E81826",
"x%	c #D13148",
"y%	c #FF000C",
"z%	c #D92C30",
"A%	c #FC0603",
"B%	c #F31015",
"C%	c #9A6756",
"D%	c #708A89",
"E%	c #9E1F61",
"F%	c #0D01FF",
"G%	c #1F00FE",
"H%	c #2400FF",
"I%	c #1F00FF",
"J%	c #0E00FF",
"K%	c #7C3083",
"L%	c #C83D2B",
"M%	c #64997C",
"N%	c #A05879",
"O%	c #DD0FCC",
"P%	c #B74883",
"Q%	c #EA1142",
"R%	c #C13D64",
"S%	c #FD0022",
"T%	c #B54366",
"U%	c #F10D26",
"V%	c #DE2042",
"W%	c #B04A78",
"X%	c #CD2B67",
"Y%	c #D910BE",
"Z%	c #FB0701",
"`%	c #F80D05",
" &	c #A45C43",
".&	c #7A7C8D",
"+&	c #857E5C",
"@&	c #862A81",
"#&	c #1602FB",
"$&	c #2500FF",
"%&	c #2D00FF",
"&&	c #3000FF",
"*&	c #2F00FF",
"=&	c #2C00FF",
"-&	c #2100FF",
";&	c #120EF6",
">&	c #D93729",
",&	c #BC4737",
"'&	c #689674",
")&	c #827B75",
"!&	c #CF1BCA",
"~&	c #CA2E6F",
"{&	c #D80CDD",
"]&	c #D80EC4",
"^&	c #B14C8F",
"/&	c #D707DF",
"(&	c #CB20B9",
"_&	c #C2349E",
":&	c #D500FA",
"<&	c #CD00FF",
"[&	c #FD0400",
"}&	c #ED150E",
"|&	c #FE0501",
"1&	c #E81A18",
"2&	c #817682",
"3&	c #996177",
"4&	c #827D64",
"5&	c #CC3254",
"6&	c #854096",
"7&	c #2507EE",
"8&	c #2B00FE",
"9&	c #3400FF",
"0&	c #3900FF",
"a&	c #3B00FF",
"b&	c #3A00FF",
"c&	c #3600FF",
"d&	c #2F00FE",
"e&	c #1E00FF",
"f&	c #3A24CC",
"g&	c #A85A54",
"h&	c #C03E4C",
"i&	c #1CE357",
"j&	c #5BA16D",
"k&	c #9F5978",
"l&	c #B636B6",
"m&	c #B93A81",
"n&	c #E41169",
"o&	c #D900FF",
"p&	c #C62496",
"q&	c #DE1F40",
"r&	c #D700F9",
"s&	c #CB08D7",
"t&	c #B74369",
"u&	c #B93880",
"v&	c #BB4A52",
"w&	c #916A75",
"x&	c #5BA071",
"y&	c #B24090",
"z&	c #80806A",
"A&	c #B0374D",
"B&	c #1300FF",
"C&	c #3A00FE",
"D&	c #3F00FF",
"E&	c #4100FF",
"F&	c #4300FF",
"G&	c #4200FF",
"H&	c #4000FF",
"I&	c #3100FF",
"J&	c #2408F4",
"K&	c #AE2951",
"L&	c #D52C29",
"M&	c #AC5068",
"N&	c #916688",
"O&	c #00FF52",
"P&	c #39C361",
"Q&	c #847772",
"R&	c #52A773",
"S&	c #3BBE7C",
"T&	c #B44A6C",
"U&	c #D41B8E",
"V&	c #7A7C83",
"W&	c #33C86F",
"X&	c #26D66C",
"Y&	c #B43C97",
"Z&	c #30C863",
"`&	c #A35A4B",
" *	c #F40B0D",
".*	c #A9446C",
"+*	c #833D8E",
"@*	c #2905F1",
"#*	c #3600FE",
"$*	c #3F00FE",
"%*	c #4500FF",
"&*	c #4700FF",
"**	c #4900FF",
"=*	c #4A00FF",
"-*	c #4400FF",
";*	c #3E00FF",
">*	c #2413EA",
",*	c #9C6470",
"'*	c #EC1509",
")*	c #E9170F",
"!*	c #8D7363",
"~*	c #C52F84",
"{*	c #46B17C",
"]*	c #00FF45",
"^*	c #33C669",
"/*	c #BB3A73",
"(*	c #13EA5E",
"_*	c #857662",
":*	c #B63A91",
"<*	c #A54E8D",
"[*	c #8F6E5A",
"}*	c #D13426",
"|*	c #531FB3",
"1*	c #2900FF",
"2*	c #4400FE",
"3*	c #4D00FF",
"4*	c #4F00FF",
"5*	c #5000FF",
"6*	c #5100FF",
"7*	c #4C00FF",
"8*	c #2E00FF",
"9*	c #5B1AB1",
"0*	c #CD2F2B",
"a*	c #C6333E",
"b*	c #C1404B",
"c*	c #BB4241",
"d*	c #936961",
"e*	c #39C668",
"f*	c #A84C68",
"g*	c #C82998",
"h*	c #1AE358",
"i*	c #00FF40",
"j*	c #1EDC4B",
". . . . . . . . . . . . . . . . . . + @ # $ % & * = - ; > , ' ) ",
". . . . . . . . . . . . . . . . . . ! ~ { ] ^ / ( _ : < [ } | 1 ",
". . . . . . . . . . . . . . . . . . 2 3 4 5 6 7 8 9 0 a [ b c d ",
". . . . . . . . . . . . . . . . . . e f g h i j k l m n o p q r ",
". . . . . . . . . . . . . . . . . . s t u v w x y z A B C D E F ",
". . . . . . . . . . . . . . . . G . H I J K L M N O P Q R S T U ",
". . . . . . . V W X Y Z . . ` . .  ...+.@.#.$.%.&.*.=.-.;.>.,.'.",
". . . . . . ).!.~.{.].^./.(.. ` . _.:.<.[.}.|.1.2.3.4.5.6.7.8.9.",
". . . . 0.a.b.c.d.e.f.g.h.i.j.k.. l.m.n.o.p.q.r.s.t.u.v.w.x.y.z.",
". . . G A.B.C.D.E.F.G.H.I.J.^.K.. L.M.N.O.P.Q.R.S.T.U.V.W.X.Y.Z.",
". . . `. +.+++@+#+$+%+&+*+=+-+;+>+,+'+)+!+~+{+]+^+/+(+_+:+<+[+}+",
". . |+1+2+3+4+5+6+7+%+8+9+0+a+b+c+d+e+f+g+h+i+j+k+l+m+n+o+p+q+r+",
". . X s+t+u+v+w+x+y+z+A+B+C+D+E+F+G+H+I+J+K+L+M+N+O+P+Q+R+S+T+U+",
". . V+W+X+Y+Z+`+w+ @.@+@@@#@$@%@&@*@=@-@;@>@,@'@)@!@~@{@]@^@/@(@",
". . _@:@<@[@}@|@1@2@3@4@5@6@7@8@9@0@a@b@c@d@e@f@g@h@i@j@k@l@m@n@",
". . o@p@q@r@s@t@u@v@w@x@y@z@A@B@C@D@E@F@G@H@I@J@K@L@M@N@O@P@Q@R@",
". . S@~.T@U@V@W@W@X@Y@Z@`@ #.#+#@###$#%#&#*#=#-#;#>#,#'#)#!#~#{#",
". ` . ]#^#/#(#_#:#<#[#}#|#1#2#3#4#5#6#7#8#9#0#a#b#c#d#e#f#g#h#i#",
"` ` . ` !.j#k#l#m#n#o#p#q#r#s#t#u#v#w#x#y#z#A#B#C#D#E#F#G#H#I#J#",
"` ` . ` K#L#M#N#O#P#Q#R#S#T#U#V#W#X#Y#Z#`# $.$+$@$#$$$%$&$*$=$-$",
"` ` . ` ` ;$>$,$'$)$!$~$'${$]$^$/$($_$:$<$[$}$|$1$2$3$4$5$6$7$8$",
"` ` . ` ` ;$;$9$0$a$b$c$d$e$f$g$h$i$j$k$l$m$n$o$p$q$r$s$t$u$v$w$",
"` ` ` ;$` ;$;$x$y$z$A$B$C$D$E$F$G$H$I$J$K$L$M$N$O$P$Q$R$S$T$U$V$",
"` . ` ;$` ;$;$x$y$W$y$X$Y$Z$`$ %.%+%@%#%$%%%&%*%=%-%;%>%,%'%)%!%",
"` ` ` ;$;$;$x$~%y${%]%^%/%(%_%:%<%[%}%|%1%2%3%4%5%6%7%8%9%0%a%b%",
"` ;$;$` ;$;$~%c%d%e%f%g%_%h%i%j%k%l%m%n%o%p%q%r%s%t%u%v%w%x%y%z%",
"` ` ;$k.;$x$A%B%C%D%E%F%G%H%H%I%J%K%L%M%N%O%P%Q%R%S%T%U%V%W%X%Y%",
";$;$~%;$Z%`% &.&+&@&#&$&%&&&*&=&-&;&>&,&'&)&!&~&{&]&^&/&(&_&:&<&",
"[&}&|&1&2&3&4&5&6&7&8&9&0&a&b&c&d&e&f&g&h&i&j&k&l&m&n&o&p&q&r&s&",
"t&u&v&w&x&y&z&A&B&&&C&D&E&F&G&H&a&I&J&K&L&M&N&O&P&Q&R&S&T&U&V&W&",
"X&Y&Z&`& *.*+*@*#*$*%*&***=***&*-*;*&&>*,*'*)*!*~*{*]*^*/*(*]*W@",
"_*:*<*[*}*|*1*a&2*=*3*4*5*6*5*4*7*&*D&8*9*0*a*b*c*d*e*f*g*h*i*j*"};
